<?xml version="1.0" encoding="utf-8"?>
<!-- Generator: Adobe Illustrator 23.0.1, SVG Export Plug-In . SVG Version: 6.00 Build 0)  -->
<svg version="1.1" id="Layer_1" xmlns="http://www.w3.org/2000/svg" xmlns:xlink="http://www.w3.org/1999/xlink" x="0px" y="0px"
	 viewBox="0 0 24 24" style="enable-background:new 0 0 24 24;" xml:space="preserve">
<style type="text/css">
	.st0{fill:#EED202;stroke:#000000;stroke-width:1.5;stroke-linecap:round;stroke-linejoin:round;}
	.st1{fill:none;stroke:#000000;stroke-width:1.5;stroke-linecap:round;stroke-linejoin:round;}
</style>
<title>road-sign-warning</title>
<path class="st0" d="M13.3,2.3c-0.4-0.7-1.3-1-2-0.6C11,1.8,10.8,2,10.7,2.3l-9.8,18c-0.4,0.7-0.1,1.6,0.6,2
	c0.2,0.1,0.5,0.2,0.7,0.2h19.5c0.8,0,1.5-0.7,1.5-1.5c0-0.3-0.1-0.5-0.2-0.7L13.3,2.3z"/>
<path class="st1" d="M12,18c0.2,0,0.4,0.2,0.4,0.4"/>
<path class="st1" d="M11.6,18.4c0-0.2,0.2-0.4,0.4-0.4"/>
<path class="st1" d="M12,18.8c-0.2,0-0.4-0.2-0.4-0.4"/>
<path class="st1" d="M12.4,18.4c0,0.2-0.2,0.4-0.4,0.4"/>
<line class="st1" x1="12" y1="15" x2="12" y2="8.2"/>
</svg>
